<?xml version="1.0" encoding="utf-8"?>
<!-- Generator: Adobe Illustrator 22.1.0, SVG Export Plug-In . SVG Version: 6.00 Build 0)  -->
<svg version="1.1" id="圖層_1" xmlns="http://www.w3.org/2000/svg" xmlns:xlink="http://www.w3.org/1999/xlink" x="0px" y="0px"
	 width="237px" height="75px" viewBox="0 0 237 75" style="enable-background:new 0 0 237 75;" xml:space="preserve">
<style type="text/css">
	.st0{fill:#30261D;}
	.st1{fill:#E1251B;}
</style>
<g>
	<g>
		<path class="st0" d="M169.5,39.2c-0.7-1.2-2.3-1.5-3.4-0.8c-7.1,4.4-7.7,12.4-7.7,14.7v10.2c0,1.4,1.1,2.5,2.5,2.5
			c1.4,0,2.5-1.1,2.5-2.5V53.1c0-1.7,0.4-7.4,5.4-10.5C169.8,41.9,170.2,40.4,169.5,39.2z"/>
		<path class="st0" d="M150.5,37.4c-1.4,0-2.5,1.1-2.5,2.5v1.4c-2.5-2.1-5.7-3.4-9.2-3.4c-7.8,0-14.1,6.3-14.1,14.1
			c0,7.8,6.3,14.1,14.1,14.1c3.4,0,6.5-1.2,8.9-3.2c-1,4-4.6,6.9-8.9,6.9c-1.4,0-2.5,1.1-2.5,2.5c0,1.4,1.1,2.5,2.5,2.5
			c7.8,0,14.1-6.3,14.1-14.1V39.9C153,38.5,151.9,37.4,150.5,37.4z M138.9,61.2c-5.1,0-9.2-4.1-9.2-9.2c0-5.1,4.1-9.2,9.2-9.2
			c5.1,0,9.2,4.1,9.2,9.2C148,57,143.9,61.2,138.9,61.2z"/>
		<path class="st0" d="M183.9,37.9c-7.8,0-14.1,6.3-14.1,14.1c0,7.8,6.3,14.1,14.1,14.1c3.5,0,6.7-1.3,9.2-3.4v0.6
			c0,1.4,1.1,2.5,2.5,2.5s2.5-1.1,2.5-2.5V51.5c0-0.2,0-0.3,0-0.5C197.5,43.7,191.4,37.9,183.9,37.9z M183.9,61.2
			c-5.1,0-9.2-4.1-9.2-9.2c0-5.1,4.1-9.2,9.2-9.2c5.1,0,9.2,4.1,9.2,9.2C193.1,57,189,61.2,183.9,61.2z"/>
		<path class="st0" d="M227.3,37.4c-2.9,0-5.4,1.3-7.2,3.2c-1.8-2-4.3-3.2-7.2-3.2c-5.3,0-9.7,4.3-9.7,9.7v16.3
			c0,1.4,1.1,2.5,2.5,2.5c1.4,0,2.5-1.1,2.5-2.5V47.1c0-2.6,2.1-4.7,4.7-4.7c2.6,0,4.7,2.1,4.7,4.7v16.3c0,1.4,1.1,2.5,2.5,2.5
			c1.4,0,2.5-1.1,2.5-2.5V47.1c0-2.6,2.1-4.7,4.7-4.7c2.6,0,4.7,2.1,4.7,4.7v16.3c0,1.4,1.1,2.5,2.5,2.5c1.4,0,2.5-1.1,2.5-2.5V47.1
			C237,41.7,232.7,37.4,227.3,37.4z"/>
	</g>
	<g>
		<path class="st0" d="M86.6,3.1c-7.1,4.4-7.7,12.4-7.7,14.7V28c0,1.4,1.1,2.5,2.5,2.5c1.4,0,2.5-1.1,2.5-2.5V17.8
			c0-1.7,0.4-7.4,5.4-10.5c1.2-0.7,1.5-2.3,0.8-3.4C89.3,2.7,87.8,2.4,86.6,3.1z"/>
		<path class="st0" d="M86.6,38.4c-7.1,4.4-7.7,12.4-7.7,14.7v10.2c0,1.4,1.1,2.5,2.5,2.5c1.4,0,2.5-1.1,2.5-2.5V53.1
			c0-1.7,0.4-7.4,5.4-10.5c1.2-0.7,1.5-2.3,0.8-3.4C89.3,38.1,87.8,37.7,86.6,38.4z"/>
		<path class="st0" d="M60.3,37.9c-7.5,0-13.6,5.8-14.1,13.2c0,0.2,0,0.3,0,0.5v20.2c0,1.4,1.1,2.5,2.5,2.5s2.5-1.1,2.5-2.5v-9
			c2.5,2.1,5.7,3.4,9.2,3.4c7.8,0,14.1-6.3,14.1-14.1C74.4,44.2,68.1,37.9,60.3,37.9z M60.3,61.2c-5.1,0-9.2-4.1-9.2-9.2
			c0-5.1,4.1-9.2,9.2-9.2c5.1,0,9.2,4.1,9.2,9.2C69.5,57,65.3,61.2,60.3,61.2z"/>
		<path class="st0" d="M41.6,0.1c-1.7,0-3.1,1.4-3.1,3.1c0,1.7,1.4,3.1,3.1,3.1c1.7,0,3.1-1.4,3.1-3.1C44.7,1.5,43.3,0.1,41.6,0.1z"
			/>
		<path class="st0" d="M41.6,10.2c-1.4,0-2.5,1.1-2.5,2.5V28c0,1.4,1.1,2.5,2.5,2.5c1.4,0,2.5-1.1,2.5-2.5V12.7
			C44.1,11.3,42.9,10.2,41.6,10.2z"/>
		<path class="st0" d="M62.5,7.3c3.3,0,6.3,1.7,7.9,4.5c0.7,1.2,2.2,1.6,3.4,0.9c1.2-0.7,1.6-2.2,0.9-3.4C72.2,5,67.5,2.4,62.5,2.4
			c-7.8,0-14.2,6.4-14.2,14.2c0,7.8,6.4,14.2,14.2,14.2c5,0,9.6-2.7,12.2-6.9c0.7-1.2,0.3-2.7-0.9-3.4c-1.2-0.7-2.7-0.3-3.4,0.9
			c-1.7,2.8-4.7,4.5-7.9,4.5c-5.1,0-9.2-4.1-9.2-9.2C53.3,11.5,57.4,7.3,62.5,7.3z"/>
		<path class="st0" d="M24,2.1c-2.9,0-5.4,1.3-7.2,3.2c-1.8-2-4.3-3.2-7.2-3.2C4.3,2.1,0,6.4,0,11.7V28c0,1.4,1.1,2.5,2.5,2.5
			C3.9,30.5,5,29.4,5,28V11.7C5,9.1,7.1,7,9.7,7c2.6,0,4.7,2.1,4.7,4.7V28c0,1.4,1.1,2.5,2.5,2.5s2.5-1.1,2.5-2.5V11.7
			C19.3,9.1,21.5,7,24,7c2.6,0,4.7,2.1,4.7,4.7V28c0,1.4,1.1,2.5,2.5,2.5c1.4,0,2.5-1.1,2.5-2.5V11.7C33.7,6.4,29.4,2.1,24,2.1z"/>
		<path class="st0" d="M105.9,14.3c-1.3,0-2.4,1.1-2.4,2.4v35.7c0,1.3,1.1,2.4,2.4,2.4c1.3,0,2.4-1.1,2.4-2.4V16.8
			C108.3,15.4,107.3,14.3,105.9,14.3z"/>
	</g>
	<path class="st1" d="M97.3,29.8c-0.6,0-1.2-0.2-1.7-0.7C91.2,25,89.7,18.7,91.8,13c1.4-3.8,4.1-6.8,7.8-8.5
		c3.6-1.7,7.7-1.9,11.5-0.5c3.8,1.4,6.8,4.1,8.5,7.8c1.7,3.6,1.9,7.7,0.5,11.5c-0.8,2.2-2.1,4.2-3.8,5.8c-1,0.9-2.6,0.9-3.5-0.1
		c-0.9-1-0.9-2.6,0.1-3.5c1.2-1.1,2-2.4,2.6-3.9c0.9-2.5,0.8-5.3-0.3-7.7c-1.1-2.4-3.2-4.3-5.7-5.2c-2.5-0.9-5.3-0.8-7.7,0.3
		c-2.4,1.1-4.3,3.2-5.2,5.7c-1.4,3.8-0.4,8,2.6,10.8c1,0.9,1,2.5,0.1,3.5C98.6,29.5,97.9,29.8,97.3,29.8z"/>
	<path class="st1" d="M105.9,66.1c-1.7,0-3.5-0.3-5.2-0.9c-3.8-1.4-6.8-4.1-8.5-7.8c-1.7-3.6-1.9-7.7-0.5-11.5
		c0.8-2.2,2.1-4.2,3.8-5.8c1-0.9,2.6-0.9,3.5,0.1c0.9,1,0.9,2.6-0.1,3.5c-1.2,1.1-2,2.4-2.6,3.9c-0.9,2.5-0.8,5.3,0.3,7.7
		c1.1,2.4,3.2,4.3,5.7,5.2c2.5,0.9,5.3,0.8,7.7-0.3c2.4-1.1,4.3-3.2,5.2-5.7c1.4-3.8,0.4-8-2.6-10.8c-1-0.9-1-2.5-0.1-3.5
		c0.9-1,2.5-1,3.5-0.1c4.4,4.1,5.9,10.5,3.8,16.1c-1.4,3.8-4.1,6.8-7.8,8.5C110.3,65.6,108.1,66.1,105.9,66.1z"/>
</g>
<g>
	<path class="st0" d="M-926.4,509.9c-1.4,0-2.5-1.1-2.5-2.5v-10.2c0-2.3,0.6-10.2,7.7-14.7c1.2-0.7,2.7-0.4,3.4,0.8
		c0.7,1.2,0.4,2.7-0.8,3.4c-5,3.1-5.4,8.8-5.4,10.5v10.2C-923.9,508.8-925,509.9-926.4,509.9z"/>
	<path class="st0" d="M-926.4,545.2c-1.4,0-2.5-1.1-2.5-2.5v-10.2c0-2.3,0.6-10.2,7.7-14.7c1.2-0.7,2.7-0.4,3.4,0.8
		c0.7,1.2,0.4,2.7-0.8,3.4c-5,3.1-5.4,8.8-5.4,10.5v10.2C-923.9,544-925,545.2-926.4,545.2z"/>
	<path class="st0" d="M-847.1,545.2c-1.4,0-2.5-1.1-2.5-2.5v-10.2c0-2.3,0.6-10.2,7.7-14.7c1.2-0.7,2.7-0.4,3.4,0.8
		c0.7,1.2,0.4,2.7-0.8,3.4c-5,3.1-5.4,8.8-5.4,10.5v10.2C-844.6,544-845.7,545.2-847.1,545.2z"/>
	<path class="st0" d="M-869,545.5c-7.8,0-14.1-6.3-14.1-14.1c0-7.8,6.3-14.1,14.1-14.1c7.8,0,14.1,6.3,14.1,14.1
		C-854.9,539.1-861.2,545.5-869,545.5z M-869,522.2c-5,0-9.2,4.1-9.2,9.2c0,5,4.1,9.2,9.2,9.2c5.1,0,9.2-4.1,9.2-9.2
		C-859.8,526.3-863.9,522.2-869,522.2z"/>
	<path class="st0" d="M-869,554.2c-1.4,0-2.5-1.1-2.5-2.5c0-1.4,1.1-2.5,2.5-2.5c5.1,0,9.2-4.1,9.2-9.2v-20.8c0-1.4,1.1-2.5,2.5-2.5
		c1.4,0,2.5,1.1,2.5,2.5v20.8C-854.9,547.9-861.2,554.2-869,554.2z"/>
	<path class="st0" d="M-947.5,545.5c-7.8,0-14.1-6.3-14.1-14.1c0-7.8,6.3-14.1,14.1-14.1c7.8,0,14.1,6.3,14.1,14.1
		C-933.4,539.1-939.7,545.5-947.5,545.5z M-947.5,522.2c-5.1,0-9.2,4.1-9.2,9.2c0,5,4.1,9.2,9.2,9.2c5,0,9.2-4.1,9.2-9.2
		C-938.3,526.3-942.4,522.2-947.5,522.2z"/>
	<path class="st0" d="M-963,482.7c0,1.7-1.4,3.1-3.1,3.1c-1.7,0-3.1-1.4-3.1-3.1c0-1.7,1.4-3.1,3.1-3.1
		C-964.4,479.6-963,481-963,482.7z"/>
	<path class="st0" d="M-966.2,509.9c-1.4,0-2.5-1.1-2.5-2.5v-15.3c0-1.4,1.1-2.5,2.5-2.5c1.4,0,2.5,1.1,2.5,2.5v15.3
		C-963.7,508.8-964.8,509.9-966.2,509.9z"/>
	<path class="st0" d="M-945.2,510.2c-7.8,0-14.2-6.4-14.2-14.2c0-7.8,6.4-14.2,14.2-14.2c5,0,9.6,2.7,12.2,6.9
		c0.7,1.2,0.3,2.7-0.9,3.4c-1.2,0.7-2.7,0.3-3.4-0.9c-1.7-2.8-4.7-4.5-7.9-4.5c-5.1,0-9.2,4.1-9.2,9.2c0,5.1,4.1,9.2,9.2,9.2
		c3.3,0,6.2-1.7,7.9-4.5c0.7-1.2,2.2-1.6,3.4-0.9c1.2,0.7,1.6,2.2,0.9,3.4C-935.6,507.5-940.3,510.2-945.2,510.2z"/>
	<path class="st0" d="M-824,545.5c-7.8,0-14.1-6.3-14.1-14.1c0-7.8,6.3-14.1,14.1-14.1c7.8,0,14.1,6.3,14.1,14.1
		C-809.9,539.1-816.2,545.5-824,545.5z M-824,522.2c-5,0-9.2,4.1-9.2,9.2c0,5,4.1,9.2,9.2,9.2c5.1,0,9.2-4.1,9.2-9.2
		C-814.8,526.3-818.9,522.2-824,522.2z"/>
	<path class="st0" d="M-959.1,553.5c-1.4,0-2.5-1.1-2.5-2.5v-20.2c0-1.4,1.1-2.5,2.5-2.5s2.5,1.1,2.5,2.5v20.2
		C-956.6,552.4-957.7,553.5-959.1,553.5z"/>
	<path class="st0" d="M-812.4,545.2c-1.4,0-2.5-1.1-2.5-2.5v-11.8c0-1.4,1.1-2.5,2.5-2.5c1.4,0,2.5,1.1,2.5,2.5v11.8
		C-809.9,544-811,545.2-812.4,545.2z"/>
	<g>
		<path class="st0" d="M-990.8,509.9c-1.4,0-2.5-1.1-2.5-2.5v-16.2c0-2.6-2.1-4.7-4.7-4.7c-2.6,0-4.7,2.1-4.7,4.7v16.2
			c0,1.4-1.1,2.5-2.5,2.5c-1.4,0-2.5-1.1-2.5-2.5v-16.2c0-5.3,4.3-9.7,9.7-9.7c5.3,0,9.7,4.3,9.7,9.7v16.2
			C-988.4,508.8-989.5,509.9-990.8,509.9z"/>
		<path class="st0" d="M-976.5,509.9c-1.4,0-2.5-1.1-2.5-2.5v-16.2c0-2.6-2.1-4.7-4.7-4.7s-4.7,2.1-4.7,4.7v16.2
			c0,1.4-1.1,2.5-2.5,2.5s-2.5-1.1-2.5-2.5v-16.2c0-5.3,4.3-9.7,9.7-9.7s9.7,4.3,9.7,9.7v16.2C-974,508.8-975.1,509.9-976.5,509.9z"
			/>
	</g>
	<g>
		<path class="st0" d="M-787.8,545.2c-1.4,0-2.5-1.1-2.5-2.5v-16.2c0-2.6-2.1-4.7-4.7-4.7c-2.6,0-4.7,2.1-4.7,4.7v16.2
			c0,1.4-1.1,2.5-2.5,2.5c-1.4,0-2.5-1.1-2.5-2.5v-16.2c0-5.3,4.3-9.7,9.7-9.7c5.3,0,9.7,4.3,9.7,9.7v16.2
			C-785.4,544-786.5,545.2-787.8,545.2z"/>
		<path class="st0" d="M-773.5,545.2c-1.4,0-2.5-1.1-2.5-2.5v-16.2c0-2.6-2.1-4.7-4.7-4.7c-2.6,0-4.7,2.1-4.7,4.7v16.2
			c0,1.4-1.1,2.5-2.5,2.5c-1.4,0-2.5-1.1-2.5-2.5v-16.2c0-5.3,4.3-9.7,9.7-9.7c5.3,0,9.7,4.3,9.7,9.7v16.2
			C-771,544-772.1,545.2-773.5,545.2z"/>
	</g>
	<path class="st0" d="M-901.9,534.2c-1.3,0-2.4-1.1-2.4-2.4v-35.7c0-1.3,1.1-2.4,2.4-2.4c1.3,0,2.4,1.1,2.4,2.4v35.7
		C-899.5,533.2-900.6,534.2-901.9,534.2z"/>
	<g>
		<path class="st1" d="M-910.5,509.2c-0.6,0-1.2-0.2-1.7-0.7c-4.4-4.1-5.9-10.4-3.8-16.1c1.4-3.8,4.1-6.8,7.8-8.5
			c3.6-1.7,7.7-1.9,11.5-0.5c3.8,1.4,6.8,4.1,8.5,7.8c1.7,3.6,1.9,7.7,0.5,11.5c-0.8,2.2-2.1,4.2-3.8,5.8c-1,0.9-2.6,0.9-3.5-0.1
			c-0.9-1-0.9-2.6,0.1-3.5c1.2-1.1,2-2.4,2.6-3.9c0.9-2.5,0.8-5.3-0.3-7.7c-1.1-2.4-3.2-4.3-5.7-5.2c-2.5-0.9-5.3-0.8-7.7,0.3
			c-2.4,1.1-4.3,3.2-5.2,5.7c-1.4,3.8-0.4,8,2.6,10.8c1,0.9,1,2.5,0.1,3.5C-909.2,508.9-909.9,509.2-910.5,509.2z"/>
		<path class="st1" d="M-901.9,545.5c-1.7,0-3.5-0.3-5.2-0.9c-3.8-1.4-6.8-4.1-8.5-7.8c-1.7-3.6-1.9-7.7-0.5-11.5
			c0.8-2.2,2.1-4.2,3.8-5.8c1-0.9,2.6-0.9,3.5,0.1c0.9,1,0.9,2.6-0.1,3.5c-1.2,1.1-2,2.4-2.6,3.9c-0.9,2.5-0.8,5.3,0.3,7.7
			c1.1,2.4,3.2,4.3,5.7,5.2c2.5,0.9,5.3,0.8,7.7-0.3c2.4-1.1,4.3-3.2,5.2-5.7c1.4-3.8,0.4-8-2.6-10.8c-1-0.9-1-2.5-0.1-3.5
			c0.9-1,2.5-1,3.5-0.1c4.4,4.1,5.9,10.4,3.8,16.1c-1.4,3.8-4.1,6.8-7.8,8.5C-897.6,545-899.7,545.5-901.9,545.5z"/>
	</g>
</g>
</svg>
